Coordinates
version=1
nRows=13
nColumns=26
inDegrees=yes

Units are S.I. units (second, meters, Newtons, ...)
Angles are in degrees.

endheader
time	pelvis_tilt	pelvis_list	pelvis_rotation	pelvis_tx	pelvis_ty	pelvis_tz	hip_flexion_r	hip_adduction_r	hip_rotation_r	knee_angle_r	knee_angle_r_beta	ankle_angle_r	subtalar_angle_r	mtp_angle_r	hip_flexion_l	hip_adduction_l	hip_rotation_l	knee_angle_l	knee_angle_l_beta	ankle_angle_l	subtalar_angle_l	mtp_angle_l	lumbar_extension	lumbar_bending	lumbar_rotation
      0.27500000	      5.54962849	     -1.30920755	     -1.44785309	      0.36978562	      1.01900916	      0.16204597	     10.84726339	     -3.07559236	     -1.85364372	     57.60337027	     57.60337027	      0.91366706	      0.00000000	      0.00000000	      1.67572116	      0.34923667	    -11.29187848	     12.68829301	     12.68829301	      4.42453999	      0.00000000	      0.00000000	    -18.37858092	     -0.67356871	      2.88893222
      0.28333333	      5.50989547	     -1.40919943	     -1.20569058	      0.37816800	      1.01989596	      0.16160399	     11.67293992	     -2.88176058	     -1.95908133	     56.47322436	     56.47322436	      1.62835756	      0.00000000	      0.00000000	      0.90697252	      0.33299778	    -11.13762560	     12.13330198	     12.13330198	      4.50921176	      0.00000000	      0.00000000	    -18.34420859	     -0.49878712	      2.69255369
      0.29166667	      5.49481652	     -1.47510936	     -0.90494558	      0.38659224	      1.02066026	      0.16121013	     12.36076843	     -2.68398913	     -2.02892777	     55.15668648	     55.15668648	      2.50843198	      0.00000000	      0.00000000	      0.11211222	      0.34582584	    -10.88944054	     11.56857442	     11.56857442	      4.59326669	      0.00000000	      0.00000000	    -18.33595558	     -0.35854960	      2.42705697
      0.30000000	      5.30085866	     -1.57140666	     -0.77064798	      0.39455922	      1.02104979	      0.16079793	     13.42976829	     -2.57486149	     -2.22922027	     53.91346679	     53.91346679	      2.83169936	      0.00000000	      0.00000000	     -0.39517617	      0.32927887	    -10.83410859	     11.13473452	     11.13473452	      4.96536189	      0.00000000	      0.00000000	    -18.17296085	     -0.19714476	      2.33430003
      0.30833333	      5.12182228	     -1.62455218	     -0.66586762	      0.40256708	      1.02126299	      0.16048633	     14.38419705	     -2.44399959	     -2.25475268	     52.43043808	     52.43043808	      3.11254956	      0.00000000	      0.00000000	     -0.95505089	      0.35216770	    -10.73293254	     10.65472849	     10.65472849	      5.15186726	      0.00000000	      0.00000000	    -18.01818986	     -0.09949147	      2.27504306
      0.31666667	      5.02821073	     -1.64303134	     -0.37830357	      0.41084439	      1.02156360	      0.16021713	     15.09418912	     -2.38542681	     -2.53729445	     50.75193239	     50.75193239	      3.34800538	      0.00000000	      0.00000000	     -1.58669057	      0.35916372	    -10.55997011	     10.25632620	     10.25632620	      5.11752849	      0.00000000	      0.00000000	    -17.93537607	     -0.03332724	      2.00811907
      0.32500000	      4.99158915	     -1.68503648	     -0.05394205	      0.41914284	      1.02187260	      0.15993207	     15.63494569	     -2.30893054	     -2.89415399	     48.78487479	     48.78487479	      3.55354727	      0.00000000	      0.00000000	     -2.25552696	      0.32326377	    -10.31969655	      9.89930654	      9.89930654	      5.13047276	      0.00000000	      0.00000000	    -17.91212756	      0.06141049	      1.72018806
      0.33333333	      4.89938085	     -1.69073209	      0.24682740	      0.42735845	      1.02190391	      0.15955183	     16.21097233	     -2.28743086	     -3.17587081	     46.76385078	     46.76385078	      3.70212839	      0.00000000	      0.00000000	     -2.85961436	      0.33667216	     -9.99041414	      9.50662311	      9.50662311	      5.27833815	      0.00000000	      0.00000000	    -17.83478180	      0.12829437	      1.44222177
      0.34166667	      4.83720068	     -1.66672054	      0.50276576	      0.43541659	      1.02184705	      0.15937023	     16.71459423	     -2.25513097	     -3.35400892	     44.62299540	     44.62299540	      3.81521249	      0.00000000	      0.00000000	     -3.46390318	      0.36332583	     -9.55186148	      9.16949860	      9.16949860	      5.50825528	      0.00000000	      0.00000000	    -17.81628560	      0.14038566	      1.19301968
      0.35000000	      4.73428983	     -1.64151513	      0.71328980	      0.44354750	      1.02159189	      0.15901023	     17.21725021	     -2.24370250	     -3.53224546	     42.39386390	     42.39386390	      3.89816043	      0.00000000	      0.00000000	     -4.00073567	      0.41650767	     -9.47766347	      8.88145210	      8.88145210	      5.72136108	      0.00000000	      0.00000000	    -17.74721336	      0.16842799	      0.95944829
      0.35833333	      4.66676311	     -1.60866326	      0.91844245	      0.45166810	      1.02132568	      0.15885893	     17.60519791	     -2.21205088	     -3.70501676	     39.99357051	     39.99357051	      3.84626460	      0.00000000	      0.00000000	     -4.53912566	      0.45945467	     -9.46909351	      8.72598805	      8.72598805	      5.99707447	      0.00000000	      0.00000000	    -17.72359490	      0.15365974	      0.76326102
      0.36666667	      4.56981319	     -1.50972911	      1.16958656	      0.45975621	      1.02083126	      0.15862314	     17.93364810	     -2.24747465	     -3.88037440	     37.45127400	     37.45127400	      3.74561726	      0.00000000	      0.00000000	     -4.97726576	      0.56065020	     -9.47258355	      8.70484604	      8.70484604	      6.33020137	      0.00000000	      0.00000000	    -17.67877224	      0.09019100	      0.46171079
      0.37500000	      4.47362487	     -1.46762681	      1.42692315	      0.46788844	      1.02022039	      0.15856254	     18.15541612	     -2.21108211	     -4.09565640	     34.66595370	     34.66595370	      3.41802640	      0.00000000	      0.00000000	     -5.45044404	      0.57473134	     -9.38177294	      8.58971365	      8.58971365	      6.67906513	      0.00000000	      0.00000000	    -17.63091199	      0.07053858	      0.21138590
